<?xml version="1.0" encoding="UTF-8" standalone="no"?>
<!-- Created with Inkscape (http://www.inkscape.org/) -->

<svg
   width="132.29167mm"
   height="132.29178mm"
   viewBox="0 0 132.29167 132.29178"
   version="1.1"
   id="svg4001"
   inkscape:version="1.2 (dc2aedaf03, 2022-05-15)"
   sodipodi:docname="close.svg"
   inkscape:export-filename="close.png"
   inkscape:export-xdpi="96"
   inkscape:export-ydpi="96"
   xmlns:inkscape="http://www.inkscape.org/namespaces/inkscape"
   xmlns:sodipodi="http://sodipodi.sourceforge.net/DTD/sodipodi-0.dtd"
   xmlns="http://www.w3.org/2000/svg"
   xmlns:svg="http://www.w3.org/2000/svg"
   xmlns:rdf="http://www.w3.org/1999/02/22-rdf-syntax-ns#"
   xmlns:cc="http://creativecommons.org/ns#"
   xmlns:dc="http://purl.org/dc/elements/1.1/">
  <title
     id="title8196">close</title>
  <sodipodi:namedview
     id="namedview4003"
     pagecolor="#ffffff"
     bordercolor="#000000"
     borderopacity="0.25"
     inkscape:showpageshadow="2"
     inkscape:pageopacity="0.0"
     inkscape:pagecheckerboard="0"
     inkscape:deskcolor="#d1d1d1"
     inkscape:document-units="mm"
     showgrid="false"
     inkscape:zoom="0.80444024"
     inkscape:cx="77.072226"
     inkscape:cy="238.67528"
     inkscape:window-width="1920"
     inkscape:window-height="1057"
     inkscape:window-x="-8"
     inkscape:window-y="-8"
     inkscape:window-maximized="1"
     inkscape:current-layer="layer1" />
  <defs
     id="defs3998" />
  <g
     inkscape:label="Layer 1"
     inkscape:groupmode="layer"
     id="layer1"
     transform="translate(-41.08076,-82.029473)">
    <path
       id="rect7441"
       style="fill:#d90368;fill-opacity:1;stroke-width:1.10697;stroke-linejoin:bevel"
       d="m 57.416057,82.029473 c -4.171745,0 -8.34378,1.598412 -11.540386,4.79502 -6.393215,6.393213 -6.393215,16.686517 0,23.079727 l 38.270673,38.27119 -38.27067,38.27068 c -6.393214,6.39321 -6.393214,16.68703 1e-6,23.08025 6.393207,6.3932 16.687035,6.39321 23.080248,0 l 38.270667,-38.27068 38.27068,38.27068 c 6.39321,6.39321 16.68703,6.39321 23.08024,0 6.39322,-6.39322 6.39322,-16.68704 0,-23.08025 l -38.27067,-38.27068 38.27067,-38.27119 c 6.39321,-6.39321 6.39321,-16.686517 0,-23.079724 -6.39321,-6.393215 -16.68703,-6.393213 -23.08024,0 L 107.22659,125.09516 68.955921,86.824492 C 65.759314,83.627885 61.587802,82.029473 57.416057,82.029473 Z" />
  </g>
  <metadata
     id="metadata8192">
    <rdf:RDF>
      <cc:Work
         rdf:about="">
        <dc:date>2023.02.01</dc:date>
        <dc:creator>
          <cc:Agent>
            <dc:title>@IsaacGH</dc:title>
          </cc:Agent>
        </dc:creator>
        <dc:source>Inkscape v1.2</dc:source>
        <dc:language>english</dc:language>
        <dc:title>close</dc:title>
        <dc:subject>
          <rdf:Bag>
            <rdf:li>close</rdf:li>
            <rdf:li>cross</rdf:li>
            <rdf:li>x</rdf:li>
          </rdf:Bag>
        </dc:subject>
      </cc:Work>
    </rdf:RDF>
  </metadata>
</svg>
